<svg width="976" height="976" viewBox="0 0 976 976" fill="none" xmlns="http://www.w3.org/2000/svg">
<circle cx="488" cy="488" r="488" fill="url(#paint0_linear_15_4)"/>
<path d="M882.551 334.465C806.719 302.236 733.941 293.176 660.084 324.674C592.37 353.545 549.779 407.15 515.656 469.563C568.99 493.658 623.091 504.5 679.829 500.57C725.137 497.428 765.754 481.753 795.209 446.999C825.36 411.423 852.538 373.412 882.551 334.465Z" fill="#25C6FF"/>
<path d="M163 188C163.743 262.558 183.639 326.388 233.919 378.508C287.985 434.569 357.871 454.311 433.888 458.744C378.092 409.137 323.445 358.868 276.243 301.333C304.85 325.782 331.691 352.059 359.752 377.011C387.79 401.951 417.047 425.566 445.77 449.752C447.571 441.995 446.572 436.717 446.223 431.416C443.61 391.52 432.727 353.796 415.386 317.797C392.935 271.172 360.658 233.391 308.566 219.315C261.539 206.611 213.199 198.591 163 188Z" fill="#25C6FF"/>
<path d="M492.786 461.257C491.067 467.735 488.884 474.053 486.793 480.131C474.133 516.873 459.592 550.519 462.693 590.117C454.365 590.78 446.235 592.116 438.337 594.07C438.035 589.157 437.826 584.153 437.698 579.092C438.627 544.075 460.3 477.857 474.633 453.877L475.353 452.643C476.746 450.267 478.175 447.833 480.208 445.982C484.528 442.029 488.408 441.709 490.835 444.794C493.913 448.713 493.925 456.881 492.786 461.257Z" fill="#25C6FF"/>
<path d="M475.33 609.905C398.429 609.905 336.128 671.175 336.128 746.83C336.128 822.485 398.417 883.756 475.33 883.756C552.137 883.756 614.531 822.485 614.531 746.83C614.531 671.175 552.149 609.905 475.33 609.905ZM533.589 793.832C531.103 811.928 519.825 824.164 500.034 830.242C497.513 831.065 494.819 831.613 491.973 832.184L490.893 832.413C490.707 832.47 490.568 832.493 490.51 832.493H488.396V854.623H465.515V833.133L463.901 832.744C429.417 824.427 414.004 807.153 416.757 779.973L417.024 777.745H452.623L453.784 785.434C454.969 795.979 461.764 802.514 472.437 803.36C473.645 803.463 474.935 803.474 476.34 803.463L479 803.371C489.929 803.108 494.052 797.293 495.574 792.461C498.361 783.823 495.806 775.186 489.221 770.982C485.399 768.571 481.288 766.686 476.712 764.584C474.609 763.693 472.507 762.699 470.405 761.717L470.161 761.602C467.164 760.174 464.075 758.746 461.067 757.409C454.365 754.462 446.769 751.126 440.091 746.362C427.198 737.302 420.264 722.335 421.554 706.341C422.936 689.935 432.379 675.894 446.816 668.799C451.299 666.64 456.038 665.257 461.067 663.784L467.42 661.841V639.038H490.196V662.733L491.846 663.098C508.687 666.857 519.872 674.169 527.015 686.13C531.846 694.276 534.274 705.381 533.17 714.475L532.973 716.566H497.246L496.247 711.368C495.76 707.929 495.237 705.427 494.529 703.245C492.031 695.75 486.05 691.786 477.188 691.786C465.515 692.003 462.309 696.984 460.695 701.817C457.675 710.739 459.836 719.376 466.061 723.318C470.44 726.163 475.109 728.276 480.033 730.527L480.881 730.915C482.798 731.864 484.714 732.709 486.631 733.555C489.662 735.085 492.717 736.445 495.644 737.747L497.119 738.422C502.531 740.901 508.118 743.46 513.321 746.613C529.465 756.256 536.457 772.581 533.589 793.832Z" fill="#25C6FF"/>
<defs>
<linearGradient id="paint0_linear_15_4" x1="-2.55775e-05" y1="893.346" x2="976" y2="82.6539" gradientUnits="userSpaceOnUse">
<stop stop-color="#272727"/>
<stop offset="1" stop-color="#605F5F"/>
</linearGradient>
</defs>
</svg>
